<svg xmlns="http://www.w3.org/2000/svg" viewBox="0 0 32 32" shape-rendering="crispEdges">
<rect x="1" y="8" width="1" height="1" fill="rgb(98,165,167)"/>
<rect x="4" y="8" width="1" height="1" fill="rgb(101,167,172)"/>
<rect x="1" y="9" width="1" height="1" fill="rgb(122,220,227)"/>
<rect x="2" y="9" width="1" height="1" fill="rgb(103,173,182)"/>
<rect x="4" y="9" width="1" height="1" fill="rgb(120,213,219)"/>
<rect x="1" y="10" width="1" height="1" fill="rgb(125,224,230)"/>
<rect x="2" y="10" width="1" height="1" fill="rgb(114,196,202)"/>
<rect x="3" y="10" width="1" height="1" fill="rgb(121,201,207)"/>
<rect x="4" y="10" width="1" height="1" fill="rgb(122,219,226)"/>
<rect x="1" y="11" width="1" height="1" fill="rgb(127,220,226)"/>
<rect x="2" y="11" width="1" height="1" fill="rgb(124,220,227)"/>
<rect x="3" y="11" width="1" height="1" fill="rgb(120,213,221)"/>
<rect x="4" y="11" width="1" height="1" fill="rgb(119,212,219)"/>
<rect x="2" y="12" width="1" height="1" fill="rgb(122,220,227)"/>
<rect x="3" y="12" width="1" height="1" fill="rgb(119,215,224)"/>
<rect x="4" y="12" width="1" height="1" fill="transparent"/>
<rect x="15" y="12" width="1" height="1" fill="rgb(157,222,225)"/>
<rect x="16" y="12" width="1" height="1" fill="rgb(168,239,243)"/>
<rect x="17" y="12" width="1" height="1" fill="rgb(168,239,242)"/>
<rect x="18" y="12" width="1" height="1" fill="rgb(168,239,243)"/>
<rect x="19" y="12" width="1" height="1" fill="rgb(169,239,243)"/>
<rect x="20" y="12" width="1" height="1" fill="rgb(170,239,243)"/>
<rect x="21" y="12" width="1" height="1" fill="rgb(169,239,243)"/>
<rect x="22" y="12" width="1" height="1" fill="rgb(170,239,242)"/>
<rect x="23" y="12" width="1" height="1" fill="rgb(170,240,244)"/>
<rect x="24" y="12" width="1" height="1" fill="rgb(170,241,243)"/>
<rect x="25" y="12" width="1" height="1" fill="rgb(171,241,243)"/>
<rect x="26" y="12" width="1" height="1" fill="rgb(171,241,243)"/>
<rect x="27" y="12" width="1" height="1" fill="rgb(171,241,243)"/>
<rect x="28" y="12" width="1" height="1" fill="rgb(172,241,243)"/>
<rect x="29" y="12" width="1" height="1" fill="rgb(165,228,230)"/>
<rect x="2" y="13" width="1" height="1" fill="rgb(98,172,180)"/>
<rect x="3" y="13" width="1" height="1" fill="rgb(118,215,223)"/>
<rect x="4" y="13" width="1" height="1" fill="transparent"/>
<rect x="12" y="13" width="1" height="1" fill="rgb(168,235,237)"/>
<rect x="13" y="13" width="1" height="1" fill="rgb(168,241,244)"/>
<rect x="14" y="13" width="1" height="1" fill="rgb(168,240,246)"/>
<rect x="15" y="13" width="1" height="1" fill="rgb(148,230,236)"/>
<rect x="16" y="13" width="1" height="1" fill="rgb(139,231,238)"/>
<rect x="17" y="13" width="1" height="1" fill="rgb(139,231,238)"/>
<rect x="18" y="13" width="1" height="1" fill="rgb(139,231,237)"/>
<rect x="19" y="13" width="1" height="1" fill="rgb(139,231,237)"/>
<rect x="20" y="13" width="1" height="1" fill="rgb(139,231,237)"/>
<rect x="21" y="13" width="1" height="1" fill="rgb(138,231,237)"/>
<rect x="22" y="13" width="1" height="1" fill="rgb(138,231,237)"/>
<rect x="23" y="13" width="1" height="1" fill="rgb(139,232,238)"/>
<rect x="24" y="13" width="1" height="1" fill="rgb(139,232,238)"/>
<rect x="25" y="13" width="1" height="1" fill="rgb(140,231,238)"/>
<rect x="26" y="13" width="1" height="1" fill="rgb(139,232,237)"/>
<rect x="27" y="13" width="1" height="1" fill="rgb(139,232,236)"/>
<rect x="28" y="13" width="1" height="1" fill="rgb(139,231,238)"/>
<rect x="29" y="13" width="1" height="1" fill="rgb(155,235,240)"/>
<rect x="30" y="13" width="1" height="1" fill="rgb(172,239,242)"/>
<rect x="2" y="14" width="1" height="1" fill="rgb(58,102,115)"/>
<rect x="3" y="14" width="1" height="1" fill="rgb(109,200,212)"/>
<rect x="4" y="14" width="1" height="1" fill="rgb(104,176,187)"/>
<rect x="12" y="14" width="1" height="1" fill="rgb(130,221,227)"/>
<rect x="13" y="14" width="1" height="1" fill="rgb(129,226,233)"/>
<rect x="14" y="14" width="1" height="1" fill="rgb(129,226,233)"/>
<rect x="15" y="14" width="1" height="1" fill="rgb(125,224,232)"/>
<rect x="16" y="14" width="1" height="1" fill="rgb(122,222,231)"/>
<rect x="17" y="14" width="1" height="1" fill="rgb(122,223,231)"/>
<rect x="18" y="14" width="1" height="1" fill="rgb(122,223,231)"/>
<rect x="19" y="14" width="1" height="1" fill="rgb(122,223,231)"/>
<rect x="20" y="14" width="1" height="1" fill="rgb(122,223,231)"/>
<rect x="21" y="14" width="1" height="1" fill="rgb(122,223,231)"/>
<rect x="22" y="14" width="1" height="1" fill="rgb(122,223,231)"/>
<rect x="23" y="14" width="1" height="1" fill="rgb(122,223,231)"/>
<rect x="24" y="14" width="1" height="1" fill="rgb(122,223,231)"/>
<rect x="25" y="14" width="1" height="1" fill="rgb(122,223,231)"/>
<rect x="26" y="14" width="1" height="1" fill="rgb(122,223,231)"/>
<rect x="27" y="14" width="1" height="1" fill="rgb(122,223,231)"/>
<rect x="28" y="14" width="1" height="1" fill="rgb(122,223,231)"/>
<rect x="29" y="14" width="1" height="1" fill="rgb(125,225,233)"/>
<rect x="30" y="14" width="1" height="1" fill="rgb(128,222,229)"/>
<rect x="2" y="15" width="1" height="1" fill="rgb(59,87,124)"/>
<rect x="3" y="15" width="1" height="1" fill="rgb(69,112,157)"/>
<rect x="4" y="15" width="1" height="1" fill="rgb(112,199,210)"/>
<rect x="5" y="15" width="1" height="1" fill="rgb(57,102,111)"/>
<rect x="11" y="15" width="1" height="1" fill="rgb(104,146,151)"/>
<rect x="12" y="15" width="1" height="1" fill="rgb(118,209,216)"/>
<rect x="13" y="15" width="1" height="1" fill="rgb(122,223,231)"/>
<rect x="14" y="15" width="1" height="1" fill="rgb(122,223,231)"/>
<rect x="15" y="15" width="1" height="1" fill="rgb(122,223,231)"/>
<rect x="16" y="15" width="1" height="1" fill="rgb(119,218,223)"/>
<rect x="17" y="15" width="1" height="1" fill="#0a0a14"/>
<rect x="18" y="15" width="1" height="1" fill="#0a0a14"/>
<rect x="19" y="15" width="1" height="1" fill="rgb(122,222,230)"/>
<rect x="20" y="15" width="1" height="1" fill="rgb(122,223,231)"/>
<rect x="21" y="15" width="1" height="1" fill="rgb(121,223,230)"/>
<rect x="22" y="15" width="1" height="1" fill="rgb(122,223,231)"/>
<rect x="23" y="15" width="1" height="1" fill="rgb(121,223,231)"/>
<rect x="24" y="15" width="1" height="1" fill="rgb(122,223,230)"/>
<rect x="25" y="15" width="1" height="1" fill="rgb(122,223,231)"/>
<rect x="26" y="15" width="1" height="1" fill="rgb(122,223,231)"/>
<rect x="27" y="15" width="1" height="1" fill="rgb(122,223,231)"/>
<rect x="28" y="15" width="1" height="1" fill="rgb(122,223,231)"/>
<rect x="29" y="15" width="1" height="1" fill="rgb(121,224,231)"/>
<rect x="30" y="15" width="1" height="1" fill="rgb(117,210,218)"/>
<rect x="2" y="16" width="1" height="1" fill="rgb(39,49,70)"/>
<rect x="3" y="16" width="1" height="1" fill="rgb(47,69,112)"/>
<rect x="4" y="16" width="1" height="1" fill="rgb(71,118,161)"/>
<rect x="5" y="16" width="1" height="1" fill="rgb(112,208,216)"/>
<rect x="6" y="16" width="1" height="1" fill="rgb(68,110,115)"/>
<rect x="7" y="16" width="1" height="1" fill="rgb(67,107,114)"/>
<rect x="8" y="16" width="1" height="1" fill="rgb(65,105,113)"/>
<rect x="9" y="16" width="1" height="1" fill="rgb(67,105,114)"/>
<rect x="10" y="16" width="1" height="1" fill="rgb(67,104,113)"/>
<rect x="11" y="16" width="1" height="1" fill="rgb(116,207,215)"/>
<rect x="12" y="16" width="1" height="1" fill="rgb(122,222,230)"/>
<rect x="13" y="16" width="1" height="1" fill="rgb(122,223,231)"/>
<rect x="14" y="16" width="1" height="1" fill="rgb(122,223,231)"/>
<rect x="15" y="16" width="1" height="1" fill="rgb(122,223,231)"/>
<rect x="16" y="16" width="1" height="1" fill="rgb(121,220,227)"/>
<rect x="17" y="16" width="1" height="1" fill="rgb(114,208,214)"/>
<rect x="18" y="16" width="1" height="1" fill="rgb(114,208,214)"/>
<rect x="19" y="16" width="1" height="1" fill="rgb(122,223,231)"/>
<rect x="20" y="16" width="1" height="1" fill="rgb(122,222,231)"/>
<rect x="21" y="16" width="1" height="1" fill="rgb(117,213,223)"/>
<rect x="22" y="16" width="1" height="1" fill="rgb(117,213,223)"/>
<rect x="23" y="16" width="1" height="1" fill="rgb(116,212,222)"/>
<rect x="24" y="16" width="1" height="1" fill="rgb(113,207,218)"/>
<rect x="25" y="16" width="1" height="1" fill="rgb(113,207,218)"/>
<rect x="26" y="16" width="1" height="1" fill="rgb(113,206,219)"/>
<rect x="27" y="16" width="1" height="1" fill="rgb(113,206,218)"/>
<rect x="28" y="16" width="1" height="1" fill="rgb(113,206,218)"/>
<rect x="29" y="16" width="1" height="1" fill="rgb(113,207,218)"/>
<rect x="30" y="16" width="1" height="1" fill="rgb(106,191,201)"/>
<rect x="4" y="17" width="1" height="1" fill="rgb(62,99,143)"/>
<rect x="5" y="17" width="1" height="1" fill="rgb(76,125,167)"/>
<rect x="6" y="17" width="1" height="1" fill="rgb(100,182,203)"/>
<rect x="7" y="17" width="1" height="1" fill="rgb(121,223,230)"/>
<rect x="8" y="17" width="1" height="1" fill="rgb(121,222,229)"/>
<rect x="9" y="17" width="1" height="1" fill="rgb(122,222,230)"/>
<rect x="10" y="17" width="1" height="1" fill="rgb(123,221,230)"/>
<rect x="11" y="17" width="1" height="1" fill="rgb(122,222,230)"/>
<rect x="12" y="17" width="1" height="1" fill="rgb(122,223,231)"/>
<rect x="13" y="17" width="1" height="1" fill="rgb(122,223,231)"/>
<rect x="14" y="17" width="1" height="1" fill="rgb(122,223,231)"/>
<rect x="15" y="17" width="1" height="1" fill="rgb(122,223,231)"/>
<rect x="16" y="17" width="1" height="1" fill="rgb(122,224,229)"/>
<rect x="17" y="17" width="1" height="1" fill="rgb(122,224,229)"/>
<rect x="18" y="17" width="1" height="1" fill="rgb(113,203,216)"/>
<rect x="19" y="17" width="1" height="1" fill="rgb(100,176,200)"/>
<rect x="20" y="17" width="1" height="1" fill="rgb(100,176,200)"/>
<rect x="21" y="17" width="1" height="1" fill="rgb(72,116,163)"/>
<rect x="22" y="17" width="1" height="1" fill="rgb(68,109,155)"/>
<rect x="23" y="17" width="1" height="1" fill="rgb(63,100,148)"/>
<rect x="24" y="17" width="1" height="1" fill="rgb(51,80,128)"/>
<rect x="25" y="17" width="1" height="1" fill="rgb(51,80,128)"/>
<rect x="26" y="17" width="1" height="1" fill="rgb(52,81,129)"/>
<rect x="27" y="17" width="1" height="1" fill="rgb(52,81,129)"/>
<rect x="28" y="17" width="1" height="1" fill="rgb(51,79,125)"/>
<rect x="29" y="17" width="1" height="1" fill="rgb(48,74,120)"/>
<rect x="30" y="17" width="1" height="1" fill="rgb(50,73,117)"/>
<rect x="4" y="18" width="1" height="1" fill="rgb(47,72,114)"/>
<rect x="5" y="18" width="1" height="1" fill="rgb(61,97,145)"/>
<rect x="6" y="18" width="1" height="1" fill="rgb(71,112,158)"/>
<rect x="7" y="18" width="1" height="1" fill="rgb(88,153,185)"/>
<rect x="8" y="18" width="1" height="1" fill="rgb(90,158,189)"/>
<rect x="9" y="18" width="1" height="1" fill="rgb(122,221,230)"/>
<rect x="10" y="18" width="1" height="1" fill="rgb(122,222,231)"/>
<rect x="11" y="18" width="1" height="1" fill="rgb(122,223,231)"/>
<rect x="12" y="18" width="1" height="1" fill="rgb(122,223,231)"/>
<rect x="13" y="18" width="1" height="1" fill="rgb(122,223,231)"/>
<rect x="14" y="18" width="1" height="1" fill="rgb(122,223,231)"/>
<rect x="15" y="18" width="1" height="1" fill="rgb(122,223,229)"/>
<rect x="16" y="18" width="1" height="1" fill="rgb(93,162,191)"/>
<rect x="17" y="18" width="1" height="1" fill="rgb(88,153,185)"/>
<rect x="18" y="18" width="1" height="1" fill="rgb(80,136,173)"/>
<rect x="19" y="18" width="1" height="1" fill="rgb(70,112,157)"/>
<rect x="20" y="18" width="1" height="1" fill="rgb(63,102,148)"/>
<rect x="21" y="18" width="1" height="1" fill="rgb(64,102,148)"/>
<rect x="22" y="18" width="1" height="1" fill="rgb(60,95,141)"/>
<rect x="23" y="18" width="1" height="1" fill="rgb(58,91,136)"/>
<rect x="24" y="18" width="1" height="1" fill="rgb(56,89,134)"/>
<rect x="25" y="18" width="1" height="1" fill="rgb(54,84,129)"/>
<rect x="26" y="18" width="1" height="1" fill="rgb(53,85,129)"/>
<rect x="27" y="18" width="1" height="1" fill="rgb(53,84,127)"/>
<rect x="28" y="18" width="1" height="1" fill="rgb(58,86,125)"/>
<rect x="4" y="19" width="1" height="1" fill="rgb(47,68,101)"/>
<rect x="5" y="19" width="1" height="1" fill="rgb(48,76,119)"/>
<rect x="6" y="19" width="1" height="1" fill="rgb(55,91,137)"/>
<rect x="7" y="19" width="1" height="1" fill="rgb(64,104,148)"/>
<rect x="8" y="19" width="1" height="1" fill="rgb(68,111,157)"/>
<rect x="9" y="19" width="1" height="1" fill="rgb(70,116,160)"/>
<rect x="10" y="19" width="1" height="1" fill="rgb(72,117,164)"/>
<rect x="11" y="19" width="1" height="1" fill="rgb(99,177,201)"/>
<rect x="12" y="19" width="1" height="1" fill="rgb(107,193,211)"/>
<rect x="13" y="19" width="1" height="1" fill="rgb(116,212,222)"/>
<rect x="14" y="19" width="1" height="1" fill="rgb(120,219,227)"/>
<rect x="15" y="19" width="1" height="1" fill="rgb(106,191,209)"/>
<rect x="16" y="19" width="1" height="1" fill="rgb(74,124,166)"/>
<rect x="17" y="19" width="1" height="1" fill="rgb(67,108,153)"/>
<rect x="18" y="19" width="1" height="1" fill="rgb(63,102,146)"/>
<rect x="19" y="19" width="1" height="1" fill="rgb(57,92,137)"/>
<rect x="20" y="19" width="1" height="1" fill="rgb(57,91,136)"/>
<rect x="21" y="19" width="1" height="1" fill="rgb(56,90,135)"/>
<rect x="22" y="19" width="1" height="1" fill="rgb(57,90,135)"/>
<rect x="23" y="19" width="1" height="1" fill="rgb(56,88,134)"/>
<rect x="24" y="19" width="1" height="1" fill="rgb(53,83,129)"/>
<rect x="25" y="19" width="1" height="1" fill="rgb(46,72,120)"/>
<rect x="26" y="19" width="1" height="1" fill="rgb(47,72,116)"/>
<rect x="27" y="19" width="1" height="1" fill="rgb(45,68,109)"/>
<rect x="5" y="20" width="1" height="1" fill="rgb(46,67,105)"/>
<rect x="6" y="20" width="1" height="1" fill="rgb(46,74,121)"/>
<rect x="7" y="20" width="1" height="1" fill="rgb(53,86,129)"/>
<rect x="8" y="20" width="1" height="1" fill="rgb(58,94,137)"/>
<rect x="9" y="20" width="1" height="1" fill="rgb(61,101,144)"/>
<rect x="10" y="20" width="1" height="1" fill="rgb(64,106,150)"/>
<rect x="11" y="20" width="1" height="1" fill="rgb(68,109,155)"/>
<rect x="12" y="20" width="1" height="1" fill="rgb(78,132,170)"/>
<rect x="13" y="20" width="1" height="1" fill="rgb(109,198,213)"/>
<rect x="14" y="20" width="1" height="1" fill="rgb(115,208,219)"/>
<rect x="15" y="20" width="1" height="1" fill="rgb(65,105,150)"/>
<rect x="16" y="20" width="1" height="1" fill="rgb(63,103,147)"/>
<rect x="17" y="20" width="1" height="1" fill="rgb(53,87,132)"/>
<rect x="18" y="20" width="1" height="1" fill="rgb(52,86,131)"/>
<rect x="19" y="20" width="1" height="1" fill="rgb(52,86,131)"/>
<rect x="20" y="20" width="1" height="1" fill="rgb(52,86,131)"/>
<rect x="21" y="20" width="1" height="1" fill="rgb(52,86,131)"/>
<rect x="22" y="20" width="1" height="1" fill="rgb(52,85,130)"/>
<rect x="23" y="20" width="1" height="1" fill="rgb(47,77,123)"/>
<rect x="24" y="20" width="1" height="1" fill="rgb(44,72,117)"/>
<rect x="25" y="20" width="1" height="1" fill="rgb(46,72,118)"/>
<rect x="26" y="20" width="1" height="1" fill="rgb(49,71,113)"/>
<rect x="6" y="21" width="1" height="1" fill="rgb(43,57,90)"/>
<rect x="7" y="21" width="1" height="1" fill="rgb(45,70,114)"/>
<rect x="8" y="21" width="1" height="1" fill="rgb(46,73,116)"/>
<rect x="9" y="21" width="1" height="1" fill="rgb(50,82,123)"/>
<rect x="10" y="21" width="1" height="1" fill="rgb(51,83,127)"/>
<rect x="11" y="21" width="1" height="1" fill="rgb(80,142,170)"/>
<rect x="12" y="21" width="1" height="1" fill="rgb(106,195,207)"/>
<rect x="13" y="21" width="1" height="1" fill="rgb(105,189,207)"/>
<rect x="14" y="21" width="1" height="1" fill="rgb(90,155,184)"/>
<rect x="15" y="21" width="1" height="1" fill="rgb(53,84,128)"/>
<rect x="16" y="21" width="1" height="1" fill="rgb(52,83,129)"/>
<rect x="17" y="21" width="1" height="1" fill="rgb(51,83,126)"/>
<rect x="18" y="21" width="1" height="1" fill="rgb(51,83,127)"/>
<rect x="19" y="21" width="1" height="1" fill="rgb(52,83,129)"/>
<rect x="20" y="21" width="1" height="1" fill="rgb(51,83,129)"/>
<rect x="21" y="21" width="1" height="1" fill="rgb(50,81,127)"/>
<rect x="22" y="21" width="1" height="1" fill="rgb(46,74,119)"/>
<rect x="23" y="21" width="1" height="1" fill="rgb(45,70,114)"/>
<rect x="24" y="21" width="1" height="1" fill="rgb(45,70,110)"/>
<rect x="7" y="22" width="1" height="1" fill="rgb(43,59,93)"/>
<rect x="8" y="22" width="1" height="1" fill="rgb(42,64,107)"/>
<rect x="9" y="22" width="1" height="1" fill="rgb(52,80,121)"/>
<rect x="10" y="22" width="1" height="1" fill="rgb(115,177,198)"/>
<rect x="11" y="22" width="1" height="1" fill="rgb(116,197,214)"/>
<rect x="12" y="22" width="1" height="1" fill="rgb(93,168,192)"/>
<rect x="13" y="22" width="1" height="1" fill="rgb(69,118,155)"/>
<rect x="14" y="22" width="1" height="1" fill="rgb(56,90,135)"/>
<rect x="15" y="22" width="1" height="1" fill="rgb(46,74,118)"/>
<rect x="16" y="22" width="1" height="1" fill="rgb(47,74,117)"/>
<rect x="17" y="22" width="1" height="1" fill="rgb(47,74,119)"/>
<rect x="18" y="22" width="1" height="1" fill="rgb(47,74,119)"/>
<rect x="19" y="22" width="1" height="1" fill="rgb(47,74,119)"/>
<rect x="20" y="22" width="1" height="1" fill="rgb(47,74,119)"/>
<rect x="21" y="22" width="1" height="1" fill="rgb(44,69,112)"/>
<rect x="22" y="22" width="1" height="1" fill="rgb(43,64,108)"/>
<rect x="23" y="22" width="1" height="1" fill="rgb(43,65,100)"/>
<rect x="8" y="23" width="1" height="1" fill="rgb(104,156,174)"/>
<rect x="9" y="23" width="1" height="1" fill="rgb(122,186,204)"/>
<rect x="10" y="23" width="1" height="1" fill="rgb(159,246,252)"/>
<rect x="11" y="23" width="1" height="1" fill="rgb(112,174,197)"/>
<rect x="12" y="23" width="1" height="1" fill="rgb(55,84,128)"/>
<rect x="13" y="23" width="1" height="1" fill="rgb(44,63,108)"/>
<rect x="14" y="23" width="1" height="1" fill="rgb(42,63,107)"/>
<rect x="15" y="23" width="1" height="1" fill="rgb(42,63,107)"/>
<rect x="16" y="23" width="1" height="1" fill="rgb(42,63,106)"/>
<rect x="17" y="23" width="1" height="1" fill="rgb(42,63,106)"/>
<rect x="18" y="23" width="1" height="1" fill="rgb(41,63,104)"/>
<rect x="19" y="23" width="1" height="1" fill="rgb(41,63,105)"/>
<rect x="20" y="23" width="1" height="1" fill="rgb(42,63,105)"/>
<rect x="21" y="23" width="1" height="1" fill="rgb(42,63,107)"/>
<rect x="22" y="23" width="1" height="1" fill="rgb(41,61,99)"/>
<rect x="7" y="24" width="1" height="1" fill="rgb(140,209,215)"/>
<rect x="8" y="24" width="1" height="1" fill="rgb(153,237,244)"/>
<rect x="9" y="24" width="1" height="1" fill="rgb(151,229,236)"/>
<rect x="10" y="24" width="1" height="1" fill="rgb(128,196,206)"/>
<rect x="11" y="24" width="1" height="1" fill="rgb(133,194,201)"/>
<rect x="7" y="25" width="1" height="1" fill="rgb(77,102,115)"/>
<rect x="8" y="25" width="1" height="1" fill="rgb(106,166,172)"/>
<rect x="9" y="25" width="1" height="1" fill="rgb(110,151,162)"/>
</svg>